<?xml version="1.0" standalone="no"?>
<!DOCTYPE svg PUBLIC "-//W3C//DTD SVG 20010904//EN"
 "http://www.w3.org/TR/2001/REC-SVG-20010904/DTD/svg10.dtd">
<svg version="1.0" xmlns="http://www.w3.org/2000/svg"
 width="421.000000pt" height="288.000000pt" viewBox="0 0 421.000000 288.000000"
 preserveAspectRatio="xMidYMid meet">

<g transform="translate(0.000000,288.000000) scale(0.100000,-0.100000)"
fill="#000000" stroke="none">
<path d="M1486 1583 c-65 -202 -121 -374 -124 -380 -3 -10 13 -13 60 -13 l65
0 24 88 24 87 121 3 121 3 27 -91 27 -90 63 0 63 0 -121 378 -121 377 -55 3
-55 3 -119 -368z m221 35 l40 -143 -85 -3 c-46 -2 -86 -1 -88 1 -6 6 78 287
86 287 3 0 24 -64 47 -142z"/>
<path d="M2060 1570 l0 -380 60 0 60 0 0 144 0 143 108 5 c84 4 117 10 155 28
84 40 127 110 127 207 0 70 -28 131 -78 173 -58 48 -116 60 -284 60 l-148 0 0
-380z m320 262 c65 -32 89 -125 50 -190 -28 -45 -73 -62 -170 -62 l-80 0 0
135 0 135 83 0 c58 0 92 -5 117 -18z"/>
<path d="M2875 1325 c-17 -16 -25 -35 -25 -58 0 -48 27 -77 76 -84 56 -7 98
28 98 82 0 75 -96 114 -149 60z"/>
</g>
</svg>
